<svg width="21" height="22" viewBox="0 0 21 22" fill="none" xmlns="http://www.w3.org/2000/svg">
<path d="M19.5831 10.5398C19.6433 10.5999 19.691 10.6712 19.7235 10.7498C19.7561 10.8283 19.7729 10.9125 19.7729 10.9975C19.7729 11.0825 19.7561 11.1667 19.7235 11.2452C19.691 11.3237 19.6433 11.3951 19.5831 11.4551L10.7363 20.2955C9.64419 21.3872 8.16315 22.0003 6.61899 22C5.07482 21.9997 3.59402 21.386 2.50235 20.2939C1.41067 19.2018 0.797548 17.7207 0.797852 16.1766C0.798155 14.6324 1.41186 13.1516 2.50397 12.0599L13.2062 1.20137C13.5865 0.820739 14.038 0.518737 14.535 0.312605C15.032 0.106474 15.5647 0.000250723 16.1028 4.4331e-07C16.6408 -0.000249837 17.1736 0.105478 17.6708 0.311147C18.168 0.516816 18.6198 0.818398 19.0004 1.19867C19.3811 1.57895 19.6831 2.03048 19.8892 2.52747C20.0953 3.02446 20.2015 3.55718 20.2018 4.09523C20.202 4.63327 20.0963 5.16609 19.8906 5.66328C19.685 6.16046 19.3834 6.61226 19.0031 6.99289L8.2998 17.8471C8.07972 18.0677 7.81836 18.2427 7.53065 18.3622C7.24293 18.4817 6.9345 18.5433 6.62296 18.5436C6.31141 18.5439 6.00286 18.4829 5.71492 18.3639C5.42697 18.245 5.16528 18.0705 4.94477 17.8504C4.72427 17.6303 4.54927 17.3689 4.42977 17.0812C4.31027 16.7935 4.24861 16.4851 4.24831 16.1735C4.248 15.862 4.30907 15.5534 4.42802 15.2655C4.54696 14.9776 4.72146 14.7159 4.94154 14.4954L13.9199 5.36713C13.9795 5.30653 14.0505 5.25827 14.1287 5.2251C14.207 5.19192 14.291 5.17449 14.376 5.17379C14.461 5.17309 14.5453 5.18914 14.6241 5.22101C14.7029 5.25289 14.7746 5.29998 14.8352 5.35958C14.8958 5.41919 14.9441 5.49014 14.9772 5.5684C15.0104 5.64665 15.0278 5.73068 15.0285 5.81567C15.0293 5.90066 15.0132 5.98496 14.9813 6.06375C14.9494 6.14255 14.9024 6.21429 14.8428 6.27488L5.86439 15.4074C5.76401 15.5073 5.68429 15.626 5.62977 15.7567C5.57526 15.8874 5.54702 16.0275 5.54667 16.1691C5.54632 16.3107 5.57386 16.451 5.62773 16.582C5.6816 16.7129 5.76073 16.832 5.86061 16.9324C5.9605 17.0328 6.07917 17.1125 6.20987 17.167C6.34056 17.2215 6.48071 17.2498 6.62231 17.2501C6.76392 17.2505 6.90421 17.2229 7.03517 17.169C7.16613 17.1152 7.2852 17.036 7.38558 16.9362L18.0846 6.08083C18.6107 5.55558 18.9066 4.84284 18.9072 4.09942C18.9078 3.356 18.6131 2.64278 18.0878 2.11667C17.5626 1.59056 16.8498 1.29466 16.1064 1.29405C15.363 1.29345 14.6498 1.58819 14.1237 2.11344L3.42035 12.9677C2.57057 13.8165 2.09277 14.9681 2.09206 16.1691C2.09135 17.3702 2.56779 18.5223 3.41657 19.3721C4.26535 20.2219 5.41694 20.6997 6.618 20.7004C7.81906 20.7011 8.97121 20.2247 9.82099 19.3759L18.6678 10.5355C18.7282 10.4757 18.7998 10.4283 18.8784 10.3961C18.9571 10.3639 19.0414 10.3476 19.1264 10.348C19.2114 10.3484 19.2955 10.3655 19.3739 10.3984C19.4522 10.4314 19.5233 10.4794 19.5831 10.5398Z" fill="#0069FF"/>
</svg>
