<svg width="22" height="18" viewBox="0 0 22 18" fill="none" xmlns="http://www.w3.org/2000/svg">
<path d="M21.8245 8.17575L13.8243 0.175478C13.7403 0.0916705 13.6335 0.0346089 13.5172 0.0115007C13.4008 -0.0116076 13.2803 0.000273875 13.1707 0.0456445C13.0611 0.0910151 12.9674 0.16784 12.9015 0.266415C12.8356 0.364991 12.8003 0.480897 12.8002 0.599493V4.81963C7.35204 5.17865 0.760816 10.3198 0.00679039 16.886C-0.0176982 17.0951 0.0244194 17.3066 0.127143 17.4904C0.229867 17.6741 0.387957 17.8207 0.578894 17.9094C0.76983 17.9981 0.983874 18.0242 1.19053 17.9841C1.39719 17.944 1.58593 17.8397 1.72985 17.6861C2.85589 16.485 6.90002 12.6599 12.8002 12.4129V16.6C12.8003 16.7186 12.8356 16.8345 12.9015 16.9331C12.9674 17.0317 13.0611 17.1085 13.1707 17.1539C13.2803 17.1992 13.4008 17.2111 13.5172 17.188C13.6335 17.1649 13.7403 17.1079 13.8243 17.024L21.8245 9.02377C21.9369 8.91127 22 8.75877 22 8.59976C22 8.44075 21.9369 8.28825 21.8245 8.17575ZM14.0003 15.152V11.7999C14.0003 11.6407 13.937 11.4881 13.8245 11.3756C13.712 11.2631 13.5594 11.1998 13.4002 11.1998C10.6271 11.1998 7.92406 11.9249 5.36797 13.3549C3.87815 14.1918 2.50582 15.2225 1.28683 16.42C1.75685 13.7639 3.3029 11.2198 5.68698 9.19278C8.04706 7.19371 10.9292 5.99967 13.4002 5.99967C13.5594 5.99967 13.712 5.93646 13.8245 5.82393C13.937 5.71141 14.0003 5.55879 14.0003 5.39965V2.04854L20.5515 8.59976L14.0003 15.152Z" fill="black"/>
</svg>
