<svg width="24" height="24" viewBox="0 0 24 24" fill="none" xmlns="http://www.w3.org/2000/svg">
<path d="M24 12C24 18.6274 18.6274 24 12 24C5.37258 24 0 18.6274 0 12C0 5.37258 5.37258 0 12 0C18.6274 0 24 5.37258 24 12Z" fill="white"/>
<path d="M18.879 7.72154L9.72597 16.8745C9.64552 16.9549 9.53647 17 9.42278 17C9.30908 17 9.20003 16.9549 9.11958 16.8745L5.11515 12.8701C5.03936 12.7888 4.99811 12.6812 5.00007 12.57C5.00203 12.4589 5.04706 12.3528 5.12566 12.2742C5.20427 12.1956 5.31033 12.1506 5.42148 12.1486C5.53263 12.1467 5.6402 12.1879 5.72154 12.2637L9.42278 15.9642L18.2726 7.11515C18.3539 7.03937 18.4615 6.99811 18.5726 7.00007C18.6838 7.00203 18.7898 7.04706 18.8684 7.12567C18.9471 7.20427 18.9921 7.31033 18.994 7.42148C18.996 7.53263 18.9547 7.6402 18.879 7.72154Z" fill="#0069FF"/>
</svg>
