<svg width="24" height="24" viewBox="0 0 24 24" fill="none" xmlns="http://www.w3.org/2000/svg">
<circle cx="12" cy="12" r="12" fill="#0069FF"/>
<path d="M18.879 8.22154L9.72597 17.3745C9.64552 17.4549 9.53647 17.5 9.42278 17.5C9.30908 17.5 9.20003 17.4549 9.11958 17.3745L5.11515 13.3701C5.03936 13.2888 4.99811 13.1812 5.00007 13.07C5.00203 12.9589 5.04706 12.8528 5.12566 12.7742C5.20427 12.6956 5.31033 12.6506 5.42148 12.6486C5.53263 12.6467 5.6402 12.6879 5.72154 12.7637L9.42278 16.4642L18.2726 7.61515C18.3539 7.53937 18.4615 7.49811 18.5726 7.50007C18.6838 7.50203 18.7898 7.54706 18.8684 7.62567C18.9471 7.70427 18.9921 7.81033 18.994 7.92148C18.996 8.03263 18.9547 8.1402 18.879 8.22154Z" fill="white"/>
</svg>
