<svg width="22" height="24" viewBox="0 0 22 24" fill="none" xmlns="http://www.w3.org/2000/svg">
<path d="M21.2979 3.76471H16.383V2.58824C16.383 1.90179 16.1117 1.24346 15.6289 0.758077C15.1461 0.272688 14.4913 0 13.8085 0L8.19149 0C7.5087 0 6.85387 0.272688 6.37107 0.758077C5.88826 1.24346 5.61702 1.90179 5.61702 2.58824V3.76471H0.702128C0.515912 3.76471 0.337323 3.83908 0.205648 3.97145C0.0739739 4.10383 0 4.28338 0 4.47059C0 4.6578 0.0739739 4.83734 0.205648 4.96972C0.337323 5.1021 0.515912 5.17647 0.702128 5.17647H1.87234V22.3529C1.87234 22.7898 2.04495 23.2087 2.35219 23.5176C2.65943 23.8265 3.07613 24 3.51064 24H18.4894C18.9239 24 19.3406 23.8265 19.6478 23.5176C19.9551 23.2087 20.1277 22.7898 20.1277 22.3529V5.17647H21.2979C21.4841 5.17647 21.6627 5.1021 21.7944 4.96972C21.926 4.83734 22 4.6578 22 4.47059C22 4.28338 21.926 4.10383 21.7944 3.97145C21.6627 3.83908 21.4841 3.76471 21.2979 3.76471ZM7.02128 2.58824C7.02128 2.27622 7.14457 1.97698 7.36402 1.75634C7.58348 1.53571 7.88113 1.41176 8.19149 1.41176H13.8085C14.1189 1.41176 14.4165 1.53571 14.636 1.75634C14.8554 1.97698 14.9787 2.27622 14.9787 2.58824V3.76471H7.02128V2.58824ZM18.7234 22.3529C18.7234 22.4153 18.6987 22.4752 18.6549 22.5193C18.611 22.5634 18.5514 22.5882 18.4894 22.5882H3.51064C3.44857 22.5882 3.38904 22.5634 3.34514 22.5193C3.30125 22.4752 3.2766 22.4153 3.2766 22.3529V5.17647H18.7234V22.3529ZM8.89362 10.1176V17.6471C8.89362 17.8343 8.81964 18.0138 8.68797 18.1462C8.55629 18.2786 8.37771 18.3529 8.19149 18.3529C8.00527 18.3529 7.82668 18.2786 7.69501 18.1462C7.56334 18.0138 7.48936 17.8343 7.48936 17.6471V10.1176C7.48936 9.93044 7.56334 9.75089 7.69501 9.61851C7.82668 9.48613 8.00527 9.41177 8.19149 9.41177C8.37771 9.41177 8.55629 9.48613 8.68797 9.61851C8.81964 9.75089 8.89362 9.93044 8.89362 10.1176ZM14.5106 10.1176V17.6471C14.5106 17.8343 14.4367 18.0138 14.305 18.1462C14.1733 18.2786 13.9947 18.3529 13.8085 18.3529C13.6223 18.3529 13.4437 18.2786 13.312 18.1462C13.1804 18.0138 13.1064 17.8343 13.1064 17.6471V10.1176C13.1064 9.93044 13.1804 9.75089 13.312 9.61851C13.4437 9.48613 13.6223 9.41177 13.8085 9.41177C13.9947 9.41177 14.1733 9.48613 14.305 9.61851C14.4367 9.75089 14.5106 9.93044 14.5106 10.1176Z" fill="#0069FF"/>
</svg>
