<svg width="16" height="17" viewBox="0 0 16 17" fill="none" xmlns="http://www.w3.org/2000/svg">
<path d="M16 10.5426V15.9894C16 16.1248 15.9462 16.2547 15.8504 16.3504C15.7547 16.4462 15.6248 16.5 15.4894 16.5H0.510638C0.375209 16.5 0.245326 16.4462 0.149562 16.3504C0.0537992 16.2547 0 16.1248 0 15.9894V10.5426C0 10.4071 0.0537992 10.2772 0.149562 10.1815C0.245326 10.0857 0.375209 10.0319 0.510638 10.0319C0.646068 10.0319 0.775951 10.0857 0.871714 10.1815C0.967477 10.2772 1.02128 10.4071 1.02128 10.5426V15.4787H14.9787V10.5426C14.9787 10.4071 15.0325 10.2772 15.1283 10.1815C15.224 10.0857 15.3539 10.0319 15.4894 10.0319C15.6248 10.0319 15.7547 10.0857 15.8504 10.1815C15.9462 10.2772 16 10.4071 16 10.5426ZM7.63915 10.9034C7.73489 10.999 7.86468 11.0527 8 11.0527C8.13532 11.0527 8.26511 10.999 8.36085 10.9034L11.7651 7.49915C11.8553 7.40235 11.9044 7.27432 11.9021 7.14203C11.8997 7.00974 11.8462 6.88352 11.7526 6.78996C11.659 6.6964 11.5328 6.64281 11.4005 6.64048C11.2682 6.63814 11.1402 6.68725 11.0434 6.77745L8.51064 9.30936V1.01064C8.51064 0.875209 8.45684 0.745326 8.36108 0.649562C8.26531 0.553799 8.13543 0.5 8 0.5C7.86457 0.5 7.73469 0.553799 7.63892 0.649562C7.54316 0.745326 7.48936 0.875209 7.48936 1.01064V9.30936L4.9566 6.77745C4.8598 6.68725 4.73176 6.63814 4.59947 6.64048C4.46718 6.64281 4.34096 6.6964 4.24741 6.78996C4.15385 6.88352 4.10026 7.00974 4.09792 7.14203C4.09559 7.27432 4.14469 7.40235 4.23489 7.49915L7.63915 10.9034Z" fill="#212228"/>
</svg>
