<svg width="28" height="26" viewBox="0 0 28 26" fill="none" xmlns="http://www.w3.org/2000/svg">
<path d="M27.1159 6.61381L21.4369 0.891566C21.1566 0.608914 20.8237 0.384694 20.4573 0.231716C20.0909 0.0787383 19.6981 0 19.3015 0C18.9049 0 18.5122 0.0787383 18.1458 0.231716C17.7794 0.384694 17.4465 0.608914 17.1661 0.891566L0.884131 17.2977C0.318026 17.8682 0 18.642 0 19.4487C0 20.2555 0.318026 21.0292 0.884131 21.5998L5.01089 25.7566C5.16516 25.9123 5.37446 25.9998 5.59278 26H26.077C26.2954 26 26.5048 25.9126 26.6592 25.757C26.8137 25.6014 26.9004 25.3903 26.9004 25.1703C26.9004 24.9502 26.8137 24.7392 26.6592 24.5836C26.5048 24.428 26.2954 24.3406 26.077 24.3406H13.7928L27.1159 10.9159C27.682 10.3453 28 9.5716 28 8.76483C28 7.95806 27.682 7.18433 27.1159 6.61381ZM11.4625 24.3406H5.93313L2.04928 20.4271C1.92168 20.2987 1.82046 20.1462 1.7514 19.9783C1.68233 19.8104 1.64678 19.6305 1.64678 19.4487C1.64678 19.267 1.68233 19.0871 1.7514 18.9192C1.82046 18.7513 1.92168 18.5988 2.04928 18.4704L9.60837 10.855L17.2278 18.5326L11.4625 24.3406ZM25.9507 9.7432L18.3916 17.3586L10.7722 9.68235L18.3312 2.06699C18.5886 1.80775 18.9376 1.66211 19.3015 1.66211C19.6654 1.66211 20.0144 1.80775 20.2718 2.06699L25.9507 7.78785C26.208 8.04717 26.3525 8.39884 26.3525 8.76552C26.3525 9.13221 26.208 9.48388 25.9507 9.7432Z" fill="#16171A"/>
</svg>
