<svg width="20" height="23" viewBox="0 0 20 23" fill="none" xmlns="http://www.w3.org/2000/svg">
<path d="M19.3056 5.00353L14.887 0.689804C14.7628 0.568422 14.5943 0.500151 14.4186 0.5H5.5814C5.17124 0.5 4.77787 0.659068 4.48785 0.942211C4.19782 1.22535 4.03488 1.60938 4.03488 2.0098V3.95098H2.04651C1.63635 3.95098 1.24299 4.11005 0.952963 4.39319C0.662936 4.67633 0.5 5.06036 0.5 5.46078V20.9902C0.5 21.3906 0.662936 21.7746 0.952963 22.0578C1.24299 22.3409 1.63635 22.5 2.04651 22.5H14.4186C14.8288 22.5 15.2221 22.3409 15.5122 22.0578C15.8022 21.7746 15.9651 21.3906 15.9651 20.9902V19.049H17.9535C18.3636 19.049 18.757 18.89 19.047 18.6068C19.3371 18.3237 19.5 17.9396 19.5 17.5392V5.46078C19.4998 5.28923 19.4299 5.12476 19.3056 5.00353ZM14.6395 20.9902C14.6395 21.0474 14.6163 21.1023 14.5748 21.1427C14.5334 21.1832 14.4772 21.2059 14.4186 21.2059H2.04651C1.98792 21.2059 1.93172 21.1832 1.89029 21.1427C1.84886 21.1023 1.82558 21.0474 1.82558 20.9902V5.46078C1.82558 5.40358 1.84886 5.34872 1.89029 5.30827C1.93172 5.26782 1.98792 5.2451 2.04651 5.2451H10.6087L14.6395 9.18029V20.9902ZM18.1744 17.5392C18.1744 17.5964 18.1511 17.6513 18.1097 17.6917C18.0683 17.7322 18.0121 17.7549 17.9535 17.7549H15.9651V8.91177C15.965 8.74021 15.895 8.57574 15.7707 8.45451L11.3521 4.14078C11.2279 4.0194 11.0594 3.95113 10.8837 3.95098H5.36047V2.0098C5.36047 1.9526 5.38374 1.89774 5.42517 1.85729C5.46661 1.81684 5.5228 1.79412 5.5814 1.79412H14.1435L18.1744 5.72931V17.5392ZM11.5465 14.0882C11.5465 14.2598 11.4767 14.4244 11.3524 14.5458C11.2281 14.6671 11.0595 14.7353 10.8837 14.7353H5.5814C5.40561 14.7353 5.23703 14.6671 5.11273 14.5458C4.98843 14.4244 4.9186 14.2598 4.9186 14.0882C4.9186 13.9166 4.98843 13.752 5.11273 13.6307C5.23703 13.5093 5.40561 13.4412 5.5814 13.4412H10.8837C11.0595 13.4412 11.2281 13.5093 11.3524 13.6307C11.4767 13.752 11.5465 13.9166 11.5465 14.0882ZM11.5465 17.5392C11.5465 17.7108 11.4767 17.8754 11.3524 17.9968C11.2281 18.1181 11.0595 18.1863 10.8837 18.1863H5.5814C5.40561 18.1863 5.23703 18.1181 5.11273 17.9968C4.98843 17.8754 4.9186 17.7108 4.9186 17.5392C4.9186 17.3676 4.98843 17.203 5.11273 17.0817C5.23703 16.9603 5.40561 16.8922 5.5814 16.8922H10.8837C11.0595 16.8922 11.2281 16.9603 11.3524 17.0817C11.4767 17.203 11.5465 17.3676 11.5465 17.5392Z" fill="#0069FF"/>
</svg>
