<svg width="24" height="12" viewBox="0 0 24 12" fill="none" xmlns="http://www.w3.org/2000/svg">
<path d="M19.6364 6C19.6364 6.17681 19.5674 6.34638 19.4447 6.47141C19.3219 6.59643 19.1554 6.66667 18.9818 6.66667H5.01818C4.84459 6.66667 4.6781 6.59643 4.55535 6.47141C4.4326 6.34638 4.36364 6.17681 4.36364 6C4.36364 5.82319 4.4326 5.65362 4.55535 5.52859C4.6781 5.40357 4.84459 5.33333 5.01818 5.33333H18.9818C19.1554 5.33333 19.3219 5.40357 19.4447 5.52859C19.5674 5.65362 19.6364 5.82319 19.6364 6ZM23.3455 0L0.654545 0C0.480949 0 0.314463 0.0702382 0.191712 0.195262C0.0689608 0.320287 0 0.489856 0 0.666667C0 0.843478 0.0689608 1.01305 0.191712 1.13807C0.314463 1.2631 0.480949 1.33333 0.654545 1.33333H23.3455C23.5191 1.33333 23.6855 1.2631 23.8083 1.13807C23.931 1.01305 24 0.843478 24 0.666667C24 0.489856 23.931 0.320287 23.8083 0.195262C23.6855 0.0702382 23.5191 0 23.3455 0ZM14.6182 10.6667H9.38182C9.20822 10.6667 9.04174 10.7369 8.91899 10.8619C8.79623 10.987 8.72727 11.1565 8.72727 11.3333C8.72727 11.5101 8.79623 11.6797 8.91899 11.8047C9.04174 11.9298 9.20822 12 9.38182 12H14.6182C14.7918 12 14.9583 11.9298 15.081 11.8047C15.2038 11.6797 15.2727 11.5101 15.2727 11.3333C15.2727 11.1565 15.2038 10.987 15.081 10.8619C14.9583 10.7369 14.7918 10.6667 14.6182 10.6667Z" fill="#16171A"/>
</svg>
