<svg width="20" height="22" viewBox="0 0 20 22" fill="none" xmlns="http://www.w3.org/2000/svg">
<path d="M18.5106 7.4717H14.8936V4.77358C14.8936 3.50755 14.378 2.29337 13.4603 1.39815C12.5426 0.50293 11.2979 0 10 0C8.70213 0 7.45742 0.50293 6.53969 1.39815C5.62196 2.29337 5.10638 3.50755 5.10638 4.77358V7.4717H1.48936C1.09436 7.4717 0.715534 7.62476 0.436224 7.89722C0.156915 8.16968 0 8.53921 0 8.92453V20.5472C0 20.9325 0.156915 21.302 0.436224 21.5745C0.715534 21.8469 1.09436 22 1.48936 22H18.5106C18.9056 22 19.2845 21.8469 19.5638 21.5745C19.8431 21.302 20 20.9325 20 20.5472V8.92453C20 8.53921 19.8431 8.16968 19.5638 7.89722C19.2845 7.62476 18.9056 7.4717 18.5106 7.4717ZM6.38298 4.77358C6.38298 3.83782 6.76406 2.94038 7.44238 2.2787C8.1207 1.61701 9.04071 1.24528 10 1.24528C10.9593 1.24528 11.8793 1.61701 12.5576 2.2787C13.2359 2.94038 13.617 3.83782 13.617 4.77358V7.4717H6.38298V4.77358ZM18.7234 20.5472C18.7234 20.6022 18.701 20.655 18.6611 20.6939C18.6212 20.7329 18.5671 20.7547 18.5106 20.7547H1.48936C1.43293 20.7547 1.37881 20.7329 1.33891 20.6939C1.29901 20.655 1.2766 20.6022 1.2766 20.5472V8.92453C1.2766 8.86948 1.29901 8.81669 1.33891 8.77777C1.37881 8.73885 1.43293 8.71698 1.48936 8.71698H18.5106C18.5671 8.71698 18.6212 8.73885 18.6611 8.77777C18.701 8.81669 18.7234 8.86948 18.7234 8.92453V20.5472ZM10 10.7925C9.32271 10.7933 8.66928 11.0366 8.1636 11.4761C7.65792 11.9156 7.33514 12.5209 7.25644 13.1771C7.17775 13.8333 7.34861 14.4948 7.73664 15.0364C8.12468 15.5779 8.7029 15.9617 9.3617 16.115V18.0566C9.3617 18.2217 9.42895 18.3801 9.54866 18.4969C9.66836 18.6136 9.83071 18.6792 10 18.6792C10.1693 18.6792 10.3316 18.6136 10.4513 18.4969C10.571 18.3801 10.6383 18.2217 10.6383 18.0566V16.115C11.2971 15.9617 11.8753 15.5779 12.2634 15.0364C12.6514 14.4948 12.8223 13.8333 12.7436 13.1771C12.6649 12.5209 12.3421 11.9156 11.8364 11.4761C11.3307 11.0366 10.6773 10.7933 10 10.7925ZM10 14.9434C9.70543 14.9434 9.41748 14.8582 9.17255 14.6986C8.92763 14.5389 8.73674 14.312 8.62401 14.0465C8.51128 13.7811 8.48179 13.489 8.53926 13.2071C8.59672 12.9253 8.73857 12.6664 8.94686 12.4633C9.15515 12.2601 9.42053 12.1217 9.70944 12.0657C9.99835 12.0096 10.2978 12.0384 10.57 12.1483C10.8421 12.2583 11.0747 12.4445 11.2384 12.6834C11.402 12.9223 11.4894 13.2032 11.4894 13.4906C11.4894 13.8759 11.3324 14.2454 11.0531 14.5179C10.7738 14.7903 10.395 14.9434 10 14.9434Z" fill="black"/>
</svg>
