<svg width="4" height="25" viewBox="0 0 4 25" fill="none" xmlns="http://www.w3.org/2000/svg">
<path d="M0.500001 2.03846C0.500001 1.73418 0.587974 1.43674 0.752796 1.18374C0.917618 0.93074 1.15189 0.733552 1.42598 0.617109C1.70006 0.500667 2.00166 0.4702 2.29263 0.529562C2.58361 0.588924 2.85088 0.735448 3.06066 0.950606C3.27044 1.16576 3.4133 1.43989 3.47118 1.73832C3.52905 2.03676 3.49935 2.34609 3.38582 2.62721C3.27229 2.90832 3.08003 3.1486 2.83336 3.31765C2.58668 3.4867 2.29667 3.57692 2 3.57692C1.60218 3.57692 1.22064 3.41484 0.93934 3.12632C0.658036 2.8378 0.500001 2.44649 0.500001 2.03846ZM2 10.9615C1.70333 10.9615 1.41332 11.0518 1.16665 11.2208C0.919971 11.3899 0.727713 11.6301 0.614182 11.9113C0.50065 12.1924 0.470945 12.5017 0.528823 12.8001C0.5867 13.0986 0.729562 13.3727 0.93934 13.5879C1.14912 13.803 1.41639 13.9495 1.70736 14.0089C1.99834 14.0683 2.29994 14.0378 2.57402 13.9214C2.84811 13.8049 3.08238 13.6077 3.2472 13.3547C3.41203 13.1017 3.5 12.8043 3.5 12.5C3.5 12.092 3.34197 11.7007 3.06066 11.4121C2.77936 11.1236 2.39783 10.9615 2 10.9615ZM2 21.4231C1.70333 21.4231 1.41332 21.5133 1.16665 21.6824C0.919971 21.8514 0.727713 22.0917 0.614182 22.3728C0.50065 22.6539 0.470945 22.9632 0.528823 23.2617C0.5867 23.5601 0.729562 23.8342 0.93934 24.0494C1.14912 24.2646 1.41639 24.4111 1.70736 24.4704C1.99834 24.5298 2.29994 24.4993 2.57402 24.3829C2.84811 24.2665 3.08238 24.0693 3.2472 23.8163C3.41203 23.5633 3.5 23.2658 3.5 22.9615C3.5 22.5535 3.34197 22.1622 3.06066 21.8737C2.77936 21.5852 2.39783 21.4231 2 21.4231Z" fill="#16171A"/>
</svg>
