<svg width="22" height="22" viewBox="0 0 22 22" fill="none" xmlns="http://www.w3.org/2000/svg">
<path d="M15.2653 9.65306C15.2653 9.83168 15.1944 10.003 15.0681 10.1293C14.9418 10.2556 14.7705 10.3265 14.5918 10.3265H6.95918C6.78057 10.3265 6.60927 10.2556 6.48297 10.1293C6.35667 10.003 6.28571 9.83168 6.28571 9.65306C6.28571 9.47445 6.35667 9.30315 6.48297 9.17685C6.60927 9.05055 6.78057 8.97959 6.95918 8.97959H14.5918C14.7705 8.97959 14.9418 9.05055 15.0681 9.17685C15.1944 9.30315 15.2653 9.47445 15.2653 9.65306ZM14.5918 12.5714H6.95918C6.78057 12.5714 6.60927 12.6424 6.48297 12.7687C6.35667 12.895 6.28571 13.0663 6.28571 13.2449C6.28571 13.4235 6.35667 13.5948 6.48297 13.7211C6.60927 13.8474 6.78057 13.9184 6.95918 13.9184H14.5918C14.7705 13.9184 14.9418 13.8474 15.0681 13.7211C15.1944 13.5948 15.2653 13.4235 15.2653 13.2449C15.2653 13.0663 15.1944 12.895 15.0681 12.7687C14.9418 12.6424 14.7705 12.5714 14.5918 12.5714ZM22 11C21.9967 13.9164 20.8368 16.7124 18.7746 18.7746C16.7124 20.8368 13.9164 21.9967 11 22H1.57143C1.15466 22 0.754961 21.8344 0.460261 21.5397C0.165561 21.245 0 20.8453 0 20.4286V11C4.34724e-08 8.08262 1.15893 5.28473 3.22183 3.22183C5.28473 1.15893 8.08262 0 11 0C13.9174 0 16.7153 1.15893 18.7782 3.22183C20.8411 5.28473 22 8.08262 22 11ZM20.6531 11C20.6531 8.43985 19.636 5.98455 17.8257 4.17425C16.0154 2.36395 13.5602 1.34694 11 1.34694C8.43985 1.34694 5.98456 2.36395 4.17426 4.17425C2.36396 5.98455 1.34694 8.43985 1.34694 11V20.4286C1.34694 20.4881 1.37059 20.5452 1.41269 20.5873C1.45479 20.6294 1.51189 20.6531 1.57143 20.6531H11C13.5592 20.6501 16.0128 19.6321 17.8225 17.8225C19.6321 16.0128 20.6501 13.5592 20.6531 11Z" fill="black"/>
</svg>
