<svg width="29" height="47" viewBox="0 0 29 47" fill="none" xmlns="http://www.w3.org/2000/svg">
<g filter="url(#filter0_ddddddd_24001_87)">
<rect x="7" y="3" width="19" height="20" rx="4" fill="white"/>
<path d="M23 15.383C23 15.5015 22.9543 15.6151 22.8731 15.6989C22.7918 15.7827 22.6816 15.8298 22.5667 15.8298H20.6889V17.3191H21.9889C22.1038 17.3191 22.214 17.3662 22.2953 17.45C22.3766 17.5338 22.4222 17.6475 22.4222 17.766C22.4222 17.8845 22.3766 17.9981 22.2953 18.0819C22.214 18.1657 22.1038 18.2128 21.9889 18.2128H20.6889V19.5532C20.6889 19.6717 20.6432 19.7853 20.562 19.8691C20.4807 19.9529 20.3705 20 20.2556 20C20.1406 20 20.0304 19.9529 19.9491 19.8691C19.8679 19.7853 19.8222 19.6717 19.8222 19.5532V15.383C19.8222 15.2645 19.8679 15.1508 19.9491 15.067C20.0304 14.9832 20.1406 14.9362 20.2556 14.9362H22.5667C22.6816 14.9362 22.7918 14.9832 22.8731 15.067C22.9543 15.1508 23 15.2645 23 15.383ZM13.4667 16.8723C13.4667 17.3858 13.2688 17.8783 12.9167 18.2414C12.5645 18.6045 12.0869 18.8085 11.5889 18.8085H10.8667V19.5532C10.8667 19.6717 10.821 19.7853 10.7397 19.8691C10.6585 19.9529 10.5483 20 10.4333 20C10.3184 20 10.2082 19.9529 10.1269 19.8691C10.0457 19.7853 10 19.6717 10 19.5532V15.383C10 15.2645 10.0457 15.1508 10.1269 15.067C10.2082 14.9832 10.3184 14.9362 10.4333 14.9362H11.5889C12.0869 14.9362 12.5645 15.1402 12.9167 15.5033C13.2688 15.8664 13.4667 16.3588 13.4667 16.8723ZM12.6 16.8723C12.6 16.5958 12.4935 16.3307 12.3039 16.1351C12.1142 15.9396 11.8571 15.8298 11.5889 15.8298H10.8667V17.9149H11.5889C11.8571 17.9149 12.1142 17.8051 12.3039 17.6095C12.4935 17.414 12.6 17.1488 12.6 16.8723ZM18.6667 17.4681C18.6667 18.1396 18.408 18.7836 17.9475 19.2584C17.4869 19.7332 16.8624 20 16.2111 20H15.0556C14.9406 20 14.8304 19.9529 14.7491 19.8691C14.6679 19.7853 14.6222 19.6717 14.6222 19.5532V15.383C14.6222 15.2645 14.6679 15.1508 14.7491 15.067C14.8304 14.9832 14.9406 14.9362 15.0556 14.9362H16.2111C16.8624 14.9362 17.4869 15.2029 17.9475 15.6778C18.408 16.1526 18.6667 16.7966 18.6667 17.4681ZM17.8 17.4681C17.8 17.0336 17.6326 16.6169 17.3346 16.3096C17.0367 16.0024 16.6325 15.8298 16.2111 15.8298H15.4889V19.1064H16.2111C16.6325 19.1064 17.0367 18.9338 17.3346 18.6265C17.6326 18.3193 17.8 17.9026 17.8 17.4681ZM10 12.4043V7.04255C10 6.76605 10.1065 6.50087 10.2961 6.30536C10.4858 6.10984 10.7429 6 11.0111 6H17.9444C18.0015 5.99995 18.0579 6.01151 18.1106 6.034C18.1633 6.05649 18.2111 6.08947 18.2514 6.13106L22.2958 10.3013C22.3769 10.3851 22.4223 10.4987 22.4222 10.617V12.4043C22.4222 12.5228 22.3766 12.6364 22.2953 12.7202C22.214 12.804 22.1038 12.8511 21.9889 12.8511C21.874 12.8511 21.7637 12.804 21.6825 12.7202C21.6012 12.6364 21.5556 12.5228 21.5556 12.4043V11.0638H17.9444C17.8295 11.0638 17.7193 11.0168 17.638 10.933C17.5568 10.8492 17.5111 10.7355 17.5111 10.617V6.89362H11.0111C10.9728 6.89362 10.9361 6.90931 10.909 6.93724C10.8819 6.96517 10.8667 7.00305 10.8667 7.04255V12.4043C10.8667 12.5228 10.821 12.6364 10.7397 12.7202C10.6585 12.804 10.5483 12.8511 10.4333 12.8511C10.3184 12.8511 10.2082 12.804 10.1269 12.7202C10.0457 12.6364 10 12.5228 10 12.4043ZM18.3778 10.1702H20.9431L18.3778 7.52511V10.1702Z" fill="#E01717"/>
</g>
<defs>
<filter id="filter0_ddddddd_24001_87" x="0" y="-11" width="33" height="58" filterUnits="userSpaceOnUse" color-interpolation-filters="sRGB">
<feFlood flood-opacity="0" result="BackgroundImageFix"/>
<feColorMatrix in="SourceAlpha" type="matrix" values="0 0 0 0 0 0 0 0 0 0 0 0 0 0 0 0 0 0 127 0" result="hardAlpha"/>
<feOffset dy="1"/>
<feGaussianBlur stdDeviation="1"/>
<feColorMatrix type="matrix" values="0 0 0 0 0.784314 0 0 0 0 0.784314 0 0 0 0 0.784314 0 0 0 0.1 0"/>
<feBlend mode="normal" in2="BackgroundImageFix" result="effect1_dropShadow_24001_87"/>
<feColorMatrix in="SourceAlpha" type="matrix" values="0 0 0 0 0 0 0 0 0 0 0 0 0 0 0 0 0 0 127 0" result="hardAlpha"/>
<feOffset dy="4"/>
<feGaussianBlur stdDeviation="2"/>
<feColorMatrix type="matrix" values="0 0 0 0 0.784314 0 0 0 0 0.784314 0 0 0 0 0.784314 0 0 0 0.09 0"/>
<feBlend mode="normal" in2="effect1_dropShadow_24001_87" result="effect2_dropShadow_24001_87"/>
<feColorMatrix in="SourceAlpha" type="matrix" values="0 0 0 0 0 0 0 0 0 0 0 0 0 0 0 0 0 0 127 0" result="hardAlpha"/>
<feOffset dy="10"/>
<feGaussianBlur stdDeviation="3"/>
<feColorMatrix type="matrix" values="0 0 0 0 0.784314 0 0 0 0 0.784314 0 0 0 0 0.784314 0 0 0 0.05 0"/>
<feBlend mode="normal" in2="effect2_dropShadow_24001_87" result="effect3_dropShadow_24001_87"/>
<feColorMatrix in="SourceAlpha" type="matrix" values="0 0 0 0 0 0 0 0 0 0 0 0 0 0 0 0 0 0 127 0" result="hardAlpha"/>
<feOffset dy="17"/>
<feGaussianBlur stdDeviation="3.5"/>
<feColorMatrix type="matrix" values="0 0 0 0 0.784314 0 0 0 0 0.784314 0 0 0 0 0.784314 0 0 0 0.01 0"/>
<feBlend mode="normal" in2="effect3_dropShadow_24001_87" result="effect4_dropShadow_24001_87"/>
<feColorMatrix in="SourceAlpha" type="matrix" values="0 0 0 0 0 0 0 0 0 0 0 0 0 0 0 0 0 0 127 0" result="hardAlpha"/>
<feOffset dy="-1"/>
<feGaussianBlur stdDeviation="1"/>
<feColorMatrix type="matrix" values="0 0 0 0 0.784314 0 0 0 0 0.784314 0 0 0 0 0.784314 0 0 0 0.1 0"/>
<feBlend mode="normal" in2="effect4_dropShadow_24001_87" result="effect5_dropShadow_24001_87"/>
<feColorMatrix in="SourceAlpha" type="matrix" values="0 0 0 0 0 0 0 0 0 0 0 0 0 0 0 0 0 0 127 0" result="hardAlpha"/>
<feOffset dy="-4"/>
<feGaussianBlur stdDeviation="2"/>
<feColorMatrix type="matrix" values="0 0 0 0 0.784314 0 0 0 0 0.784314 0 0 0 0 0.784314 0 0 0 0.09 0"/>
<feBlend mode="normal" in2="effect5_dropShadow_24001_87" result="effect6_dropShadow_24001_87"/>
<feColorMatrix in="SourceAlpha" type="matrix" values="0 0 0 0 0 0 0 0 0 0 0 0 0 0 0 0 0 0 127 0" result="hardAlpha"/>
<feOffset dy="-9"/>
<feGaussianBlur stdDeviation="2.5"/>
<feColorMatrix type="matrix" values="0 0 0 0 0.783594 0 0 0 0 0.783594 0 0 0 0 0.783594 0 0 0 0.05 0"/>
<feBlend mode="normal" in2="effect6_dropShadow_24001_87" result="effect7_dropShadow_24001_87"/>
<feBlend mode="normal" in="SourceGraphic" in2="effect7_dropShadow_24001_87" result="shape"/>
</filter>
</defs>
</svg>
