<svg width="25" height="24" viewBox="0 0 25 24" fill="none" xmlns="http://www.w3.org/2000/svg">
<path d="M24.3441 16.5853H5.59724C5.96255 15.87 6.33333 15.1252 6.69755 14.3661C6.85303 14.3916 7.01031 14.4044 7.16786 14.4044C8.72427 14.4044 10.5683 13.1881 12.6727 10.771C12.7821 11.0991 12.9133 11.4545 13.0752 11.8166C13.8288 13.5064 14.7902 14.3749 15.9343 14.3978H15.9769C16.9405 14.3978 17.914 13.7667 18.93 12.475C19.5677 13.3785 21.0213 14.3978 24.3441 14.3978C24.5182 14.3978 24.6851 14.3287 24.8082 14.2056C24.9312 14.0825 25.0004 13.9156 25.0004 13.7416C25.0004 13.5675 24.9312 13.4006 24.8082 13.2775C24.6851 13.1545 24.5182 13.0853 24.3441 13.0853C20.003 13.0853 19.7635 11.2686 19.7504 11.11C19.7556 10.9689 19.7139 10.8301 19.6317 10.7153C19.5496 10.6005 19.4317 10.5162 19.2965 10.4756C19.1573 10.4344 19.0085 10.4398 18.8726 10.4909C18.7368 10.5421 18.6214 10.6362 18.544 10.7589C17.214 12.801 16.3488 13.0919 15.9594 13.0853C14.7804 13.0624 13.8693 10.4953 13.6122 9.2572C13.5871 9.135 13.5277 9.02248 13.4409 8.93286C13.3541 8.84323 13.2435 8.7802 13.1222 8.75116C13.0009 8.72211 12.8738 8.72826 12.7558 8.76888C12.6378 8.80949 12.5339 8.8829 12.4561 8.98048C10.4141 11.5388 8.59411 12.976 7.3013 13.0766C9.90661 7.38033 10.6974 3.75564 9.71302 2.01439C9.40786 1.47626 8.77568 0.835327 7.49052 0.835327C5.84989 0.835327 4.53739 2.43439 3.90083 5.22126C3.15599 8.48501 3.57599 12.4291 5.49005 13.851C5.03614 14.796 4.5713 15.7191 4.12067 16.5853H1.59411C1.42006 16.5853 1.25314 16.6545 1.13007 16.7775C1.007 16.9006 0.937862 17.0675 0.937862 17.2416C0.937862 17.4156 1.007 17.5825 1.13007 17.7056C1.25314 17.8287 1.42006 17.8978 1.59411 17.8978H3.42724C2.10271 20.3675 1.04724 22.1263 1.03192 22.1536C0.984435 22.2275 0.952262 22.3102 0.937311 22.3967C0.92236 22.4833 0.924937 22.5719 0.944888 22.6575C0.964839 22.743 1.00176 22.8237 1.05346 22.8947C1.10516 22.9657 1.17059 23.0256 1.24586 23.0709C1.32114 23.1161 1.40474 23.1458 1.4917 23.1582C1.57866 23.1705 1.66722 23.1653 1.75212 23.1428C1.83703 23.1203 1.91655 23.0809 1.98597 23.0271C2.0554 22.9733 2.11332 22.9061 2.1563 22.8295C2.1738 22.8011 3.42067 20.7219 4.91364 17.8978H24.3441C24.5182 17.8978 24.6851 17.8287 24.8082 17.7056C24.9312 17.5825 25.0004 17.4156 25.0004 17.2416C25.0004 17.0675 24.9312 16.9006 24.8082 16.7775C24.6851 16.6545 24.5182 16.5853 24.3441 16.5853ZM5.18052 5.5133C5.64646 3.46908 6.55317 2.14783 7.49052 2.14783C8.19052 2.14783 8.43552 2.42236 8.57005 2.6608C9.00755 3.42642 9.2263 5.7397 6.06755 12.6139C4.93989 11.4874 4.51771 8.41501 5.18052 5.5133Z" fill="#ABB7C2"/>
</svg>
