<svg width="22" height="23" viewBox="0 0 22 23" fill="none" xmlns="http://www.w3.org/2000/svg">
<path d="M22 11.5C22 11.6862 21.926 11.8648 21.7944 11.9965C21.6627 12.1282 21.4841 12.2021 21.2979 12.2021H11.7021V21.7979C11.7021 21.9841 11.6282 22.1627 11.4965 22.2944C11.3648 22.426 11.1862 22.5 11 22.5C10.8138 22.5 10.6352 22.426 10.5035 22.2944C10.3718 22.1627 10.2979 21.9841 10.2979 21.7979V12.2021H0.702128C0.515912 12.2021 0.337323 12.1282 0.205648 11.9965C0.0739739 11.8648 0 11.6862 0 11.5C0 11.3138 0.0739739 11.1352 0.205648 11.0035C0.337323 10.8718 0.515912 10.7979 0.702128 10.7979H10.2979V1.20213C10.2979 1.01591 10.3718 0.837323 10.5035 0.705648C10.6352 0.573974 10.8138 0.5 11 0.5C11.1862 0.5 11.3648 0.573974 11.4965 0.705648C11.6282 0.837323 11.7021 1.01591 11.7021 1.20213V10.7979H21.2979C21.4841 10.7979 21.6627 10.8718 21.7944 11.0035C21.926 11.1352 22 11.3138 22 11.5Z" fill="white"/>
</svg>
