<svg width="22" height="16" viewBox="0 0 22 16" fill="none" xmlns="http://www.w3.org/2000/svg">
<path d="M21.819 1.58231L7.42965 15.3118C7.30318 15.4323 7.13175 15.5 6.953 15.5C6.77426 15.5 6.60283 15.4323 6.47636 15.3118L0.181028 9.30514C0.0618845 9.18314 -0.00297802 9.02178 0.000105085 8.85505C0.00318819 8.68832 0.0739762 8.52924 0.197556 8.41133C0.321136 8.29342 0.487859 8.22588 0.662601 8.22293C0.837342 8.21999 1.00646 8.28188 1.13432 8.39556L6.953 13.9463L20.8657 0.672728C20.9935 0.559048 21.1627 0.497159 21.3374 0.5001C21.5121 0.503042 21.6789 0.570585 21.8024 0.688498C21.926 0.806411 21.9968 0.965489 21.9999 1.13222C22.003 1.29895 21.9381 1.46031 21.819 1.58231Z" fill="#16171A"/>
</svg>
