<svg width="22" height="21" viewBox="0 0 22 21" fill="none" xmlns="http://www.w3.org/2000/svg">
<path d="M11.001 5.99025C10.0911 5.99025 9.20172 6.25475 8.4452 6.75029C7.68868 7.24583 7.09905 7.95016 6.75086 8.77422C6.40268 9.59827 6.31157 10.505 6.48908 11.3799C6.66658 12.2547 7.10472 13.0582 7.74809 13.6889C8.39145 14.3196 9.21115 14.7492 10.1035 14.9232C10.9959 15.0972 11.9209 15.0079 12.7615 14.6665C13.6021 14.3252 14.3205 13.7472 14.826 13.0055C15.3315 12.2639 15.6013 11.392 15.6013 10.5C15.5997 9.30445 15.1145 8.15827 14.2522 7.31286C13.3898 6.46745 12.2206 5.99181 11.001 5.99025ZM11.001 13.8334C10.3285 13.8334 9.67109 13.6379 9.11193 13.2716C8.55276 12.9053 8.11695 12.3847 7.85959 11.7756C7.60224 11.1666 7.5349 10.4963 7.6661 9.84974C7.7973 9.20314 8.12114 8.6092 8.59667 8.14303C9.0722 7.67685 9.67806 7.35939 10.3376 7.23077C10.9972 7.10215 11.6809 7.16816 12.3022 7.42045C12.9235 7.67274 13.4546 8.09998 13.8282 8.64815C14.2018 9.19631 14.4012 9.84077 14.4012 10.5C14.4012 11.3841 14.043 12.2319 13.4053 12.857C12.7677 13.4822 11.9028 13.8334 11.001 13.8334ZM21.8017 8.50005C21.7843 8.41807 21.7493 8.34068 21.6989 8.27306C21.6486 8.20543 21.5841 8.14912 21.5097 8.10789L18.4655 6.40398L18.4235 6.33437L18.4115 2.97066C18.4115 2.8857 18.3927 2.80174 18.3565 2.72456C18.3202 2.64739 18.2674 2.57883 18.2015 2.5236C17.1383 1.64231 15.9142 0.966647 14.5942 0.532435C14.5149 0.506279 14.4308 0.496692 14.3475 0.50429C14.2641 0.511888 14.1833 0.536503 14.1102 0.576553L11.047 2.25106H10.947L7.89179 0.574592C7.81838 0.534424 7.73717 0.509827 7.65344 0.502396C7.56972 0.494965 7.48533 0.504865 7.40575 0.531455C6.08588 0.966932 4.86243 1.6443 3.80051 2.52752C3.73441 2.58246 3.68123 2.65078 3.64463 2.72778C3.60803 2.80479 3.58888 2.88865 3.58849 2.9736L3.57249 6.34025C3.55849 6.3628 3.54449 6.38633 3.53149 6.40986L0.491282 8.10495C0.416568 8.14681 0.351911 8.20393 0.301698 8.27243C0.251485 8.34094 0.216891 8.41924 0.200263 8.50201C-0.0667542 9.82183 -0.0667542 11.1802 0.200263 12.5C0.217663 12.582 0.252715 12.6594 0.303074 12.727C0.353434 12.7947 0.417941 12.851 0.492283 12.8922L3.53449 14.5912L3.57649 14.6608L3.58849 18.0245C3.58801 18.1105 3.60674 18.1955 3.64337 18.2735C3.68 18.3516 3.73363 18.4209 3.80051 18.4765C4.86371 19.3578 6.08775 20.0334 7.40775 20.4676C7.48711 20.4938 7.57117 20.5034 7.65453 20.4958C7.73789 20.4882 7.81871 20.4636 7.89179 20.4235L10.953 18.749H11.053L14.1092 20.4255C14.1986 20.4739 14.2991 20.4996 14.4012 20.5C14.4669 20.5003 14.5322 20.4897 14.5942 20.4686C15.9123 20.0326 17.1341 19.3552 18.1945 18.4726C18.2606 18.4176 18.3138 18.3493 18.3504 18.2723C18.387 18.1953 18.4061 18.1114 18.4065 18.0265L18.4225 14.6598C18.4365 14.6373 18.4505 14.6137 18.4635 14.5902L21.5057 12.8951C21.5806 12.8534 21.6455 12.7963 21.6959 12.7278C21.7462 12.6593 21.781 12.5809 21.7977 12.4981C22.0661 11.1785 22.0674 9.82012 21.8017 8.50005ZM20.6767 12.0089L17.7335 13.6471C17.638 13.7006 17.5592 13.7786 17.5054 13.8726C17.4464 13.9706 17.3844 14.0794 17.3194 14.1804C17.2603 14.2734 17.2287 14.3807 17.2284 14.4902L17.2124 17.7461C16.3849 18.396 15.4555 18.9102 14.4602 19.2686L11.501 17.6451C11.4116 17.5958 11.3107 17.5698 11.208 17.5696H11.194C11.07 17.5696 10.944 17.5696 10.82 17.5696C10.7127 17.5671 10.6067 17.5928 10.513 17.6441L7.54576 19.2676C6.54925 18.911 5.61841 18.3981 4.78958 17.749L4.77757 14.4971C4.77726 14.3875 4.74574 14.2802 4.68657 14.1873C4.62256 14.0892 4.55956 13.9834 4.50056 13.8794C4.44734 13.7853 4.36882 13.7073 4.27354 13.6539L1.33034 12.0098C1.15925 11.0106 1.15925 9.99044 1.33034 8.99122L4.26854 7.35299C4.36545 7.30003 4.44569 7.22204 4.50056 7.1275C4.55956 7.02947 4.62156 6.92064 4.68657 6.81966C4.74574 6.72672 4.77726 6.61942 4.77757 6.50986L4.79358 3.25399C5.61985 2.60445 6.54791 2.09029 7.54176 1.73145L10.501 3.35497C10.5943 3.40716 10.7006 3.43295 10.808 3.42948C10.932 3.42948 11.058 3.42948 11.182 3.42948C11.2893 3.43201 11.3953 3.40628 11.489 3.35497L14.4542 1.73145C15.4507 2.08809 16.3816 2.60097 17.2104 3.25007L17.2224 6.50202C17.2227 6.61158 17.2543 6.71887 17.3134 6.81182C17.3774 6.90986 17.4404 7.01574 17.4994 7.11966C17.5527 7.21376 17.6312 7.29175 17.7265 7.34515L20.6717 8.99024C20.8437 9.98929 20.8447 11.0095 20.6747 12.0089H20.6767Z" fill="#ABB7C2"/>
</svg>
