<svg width="20" height="22" viewBox="0 0 20 22" fill="none" xmlns="http://www.w3.org/2000/svg">
<path d="M15.6593 14.4012C15.1194 14.401 14.5855 14.5138 14.0927 14.7321C13.5998 14.9504 13.1592 15.2694 12.7998 15.668L7.85869 12.5256C8.07193 12.0453 8.18204 11.5264 8.18204 11.0018C8.18204 10.4772 8.07193 9.95833 7.85869 9.47805L12.7998 6.33556C13.4444 7.04706 14.3363 7.49208 15.2977 7.58193C16.2591 7.67178 17.2194 7.39986 17.9873 6.82036C18.7551 6.24087 19.2741 5.39635 19.4408 4.45513C19.6075 3.51391 19.4096 2.54511 18.8866 1.7418C18.3636 0.938499 17.5539 0.359687 16.6189 0.120726C15.6839 -0.118235 14.6922 0.000203133 13.8415 0.452436C12.9908 0.904669 12.3436 1.65749 12.0288 2.56085C11.714 3.46421 11.7548 4.45178 12.143 5.32673L7.20191 8.46921C6.68353 7.8956 6.00134 7.49125 5.24563 7.30969C4.48992 7.12813 3.6963 7.17791 2.96981 7.45245C2.24331 7.72698 1.61819 8.21333 1.17716 8.84712C0.736138 9.48092 0.5 10.2323 0.5 11.0018C0.5 11.7713 0.736138 12.5227 1.17716 13.1565C1.61819 13.7903 2.24331 14.2766 2.96981 14.5512C3.6963 14.8257 4.48992 14.8755 5.24563 14.6939C6.00134 14.5123 6.68353 14.108 7.20191 13.5344L12.143 16.6769C11.8113 17.4266 11.7331 18.2622 11.92 19.0594C12.107 19.8566 12.549 20.5728 13.1805 21.1013C13.8119 21.6299 14.599 21.9426 15.4245 21.9928C16.25 22.0431 17.0698 21.8283 17.762 21.3803C18.4542 20.9324 18.9817 20.2753 19.266 19.5067C19.5503 18.7382 19.5763 17.8994 19.34 17.1152C19.1037 16.3309 18.6178 15.6431 17.9546 15.1541C17.2914 14.6651 16.4864 14.401 15.6593 14.4012ZM15.6593 1.2034C16.1789 1.2034 16.6868 1.35587 17.1189 1.64151C17.5509 1.92716 17.8876 2.33315 18.0865 2.80816C18.2853 3.28317 18.3373 3.80586 18.236 4.31013C18.1346 4.8144 17.8844 5.2776 17.517 5.64115C17.1496 6.00471 16.6814 6.2523 16.1718 6.3526C15.6622 6.45291 15.134 6.40143 14.6539 6.20467C14.1739 6.00792 13.7636 5.67472 13.4749 5.24722C13.1862 4.81973 13.0322 4.31712 13.0322 3.80298C13.0322 3.11353 13.3089 2.45232 13.8016 1.9648C14.2943 1.47729 14.9625 1.2034 15.6593 1.2034ZM4.34236 13.6014C3.82276 13.6014 3.31482 13.4489 2.88279 13.1633C2.45076 12.8776 2.11403 12.4716 1.91519 11.9966C1.71635 11.5216 1.66432 10.9989 1.76569 10.4946C1.86706 9.99038 2.11727 9.52718 2.48468 9.16362C2.8521 8.80007 3.32021 8.55248 3.82983 8.45217C4.33944 8.35187 4.86767 8.40335 5.34772 8.60011C5.82777 8.79686 6.23808 9.13005 6.52675 9.55755C6.81542 9.98505 6.9695 10.4877 6.9695 11.0018C6.9695 11.6912 6.69272 12.3525 6.20003 12.84C5.70734 13.3275 5.03912 13.6014 4.34236 13.6014ZM15.6593 20.8002C15.1397 20.8002 14.6318 20.6477 14.1997 20.3621C13.7677 20.0764 13.431 19.6704 13.2321 19.1954C13.0333 18.7204 12.9813 18.1977 13.0826 17.6935C13.184 17.1892 13.4342 16.726 13.8016 16.3624C14.169 15.9989 14.6372 15.7513 15.1468 15.651C15.6564 15.5507 16.1846 15.6022 16.6647 15.7989C17.1447 15.9957 17.555 16.3289 17.8437 16.7564C18.1324 17.1839 18.2864 17.6865 18.2864 18.2006C18.2864 18.542 18.2185 18.88 18.0865 19.1954C17.9544 19.5108 17.7609 19.7974 17.517 20.0388C17.273 20.2802 16.9834 20.4717 16.6647 20.6023C16.3459 20.733 16.0043 20.8002 15.6593 20.8002Z" fill="#16171A"/>
</svg>
