<svg width="24" height="22" viewBox="0 0 24 22" fill="none" xmlns="http://www.w3.org/2000/svg">
<path d="M20.2353 5.35291V9.11762C20.2353 9.30483 20.1609 9.48437 20.0285 9.61675C19.8962 9.74913 19.7166 9.8235 19.5294 9.8235C19.3422 9.8235 19.1627 9.74913 19.0303 9.61675C18.8979 9.48437 18.8235 9.30483 18.8235 9.11762V6.05879H15.7647C15.5775 6.05879 15.398 5.98443 15.2656 5.85205C15.1332 5.71967 15.0588 5.54012 15.0588 5.35291C15.0588 5.1657 15.1332 4.98616 15.2656 4.85378C15.398 4.7214 15.5775 4.64703 15.7647 4.64703H19.5294C19.7166 4.64703 19.8962 4.7214 20.0285 4.85378C20.1609 4.98616 20.2353 5.1657 20.2353 5.35291ZM8.23529 15.9411H5.17647V12.8823C5.17647 12.6951 5.1021 12.5156 4.96972 12.3832C4.83734 12.2508 4.6578 12.1764 4.47059 12.1764C4.28338 12.1764 4.10383 12.2508 3.97145 12.3832C3.83908 12.5156 3.76471 12.6951 3.76471 12.8823V16.647C3.76471 16.8342 3.83908 17.0138 3.97145 17.1462C4.10383 17.2785 4.28338 17.3529 4.47059 17.3529H8.23529C8.42251 17.3529 8.60205 17.2785 8.73443 17.1462C8.86681 17.0138 8.94118 16.8342 8.94118 16.647C8.94118 16.4598 8.86681 16.2803 8.73443 16.1479C8.60205 16.0155 8.42251 15.9411 8.23529 15.9411ZM24 2.52938V19.4706C24 19.9074 23.8265 20.3263 23.5176 20.6352C23.2087 20.9441 22.7898 21.1176 22.3529 21.1176H1.64706C1.21023 21.1176 0.791296 20.9441 0.482412 20.6352C0.173529 20.3263 0 19.9074 0 19.4706V2.52938C0 2.09256 0.173529 1.67362 0.482412 1.36474C0.791296 1.05585 1.21023 0.882324 1.64706 0.882324H22.3529C22.7898 0.882324 23.2087 1.05585 23.5176 1.36474C23.8265 1.67362 24 2.09256 24 2.52938ZM22.5882 2.52938C22.5882 2.46698 22.5634 2.40713 22.5193 2.363C22.4752 2.31888 22.4153 2.29409 22.3529 2.29409H1.64706C1.58465 2.29409 1.52481 2.31888 1.48068 2.363C1.43655 2.40713 1.41176 2.46698 1.41176 2.52938V19.4706C1.41176 19.533 1.43655 19.5928 1.48068 19.6369C1.52481 19.6811 1.58465 19.7059 1.64706 19.7059H22.3529C22.4153 19.7059 22.4752 19.6811 22.5193 19.6369C22.5634 19.5928 22.5882 19.533 22.5882 19.4706V2.52938Z" fill="#ABB7C2"/>
</svg>
