<svg width="46" height="61" viewBox="0 0 46 61" fill="none" xmlns="http://www.w3.org/2000/svg">
<path d="M23.3902 30.6125C23.7941 28.8526 24.6856 27.2421 25.9626 25.9654C27.2395 24.6887 28.8503 23.7974 30.6104 23.3937L44 21.9994L30.6126 20.6091C28.8519 20.2054 27.2405 19.3139 25.9632 18.0368C24.6858 16.7597 23.7941 15.1486 23.3902 13.3881L21.9997 0L20.6092 13.3881C20.2051 15.1485 19.3133 16.7594 18.036 18.0365C16.7586 19.3136 15.1474 20.2052 13.3868 20.6091L0 21.9994L13.3868 23.3937C15.1471 23.7973 16.758 24.6884 18.0351 25.9652C19.3121 27.2419 20.2037 28.8525 20.6075 30.6125L21.998 44L23.3902 30.6125Z" fill="white"/>
<path d="M40.3792 40.3489C40.4893 39.8689 40.7324 39.4297 41.0807 39.0815C41.429 38.7333 41.8683 38.4902 42.3483 38.3801L46 37.9998L42.3489 37.6207C41.8687 37.5106 41.4292 37.2674 41.0809 36.9191C40.7325 36.5708 40.4893 36.1314 40.3792 35.6513L39.9999 32L39.6207 35.6513C39.5105 36.1314 39.2673 36.5708 38.9189 36.919C38.5705 37.2673 38.1311 37.5105 37.651 37.6207L34 37.9998L37.651 38.3801C38.131 38.4902 38.5704 38.7332 38.9187 39.0814C39.2669 39.4296 39.5101 39.8689 39.6202 40.3489L39.9995 44L40.3792 40.3489Z" fill="white"/>
<path d="M25.3792 57.3489C25.4893 56.8689 25.7324 56.4297 26.0807 56.0815C26.429 55.7333 26.8683 55.4902 27.3483 55.3801L31 54.9998L27.3489 54.6207C26.8687 54.5106 26.4292 54.2674 26.0809 53.9191C25.7325 53.5708 25.4893 53.1314 25.3792 52.6513L24.9999 49L24.6207 52.6513C24.5105 53.1314 24.2673 53.5708 23.9189 53.919C23.5705 54.2673 23.1311 54.5105 22.651 54.6207L19 54.9998L22.651 55.3801C23.131 55.4902 23.5704 55.7332 23.9187 56.0814C24.2669 56.4296 24.5101 56.8689 24.6202 57.3489L24.9995 61L25.3792 57.3489Z" fill="white"/>
</svg>
