<svg width="22" height="22" viewBox="0 0 22 22" fill="none" xmlns="http://www.w3.org/2000/svg">
<path d="M11 20.4433C16.2154 20.4433 20.4433 16.2154 20.4433 11C20.4433 5.78456 16.2154 1.55664 11 1.55664C5.78456 1.55664 1.55664 5.78456 1.55664 11C1.55664 16.2154 5.78456 20.4433 11 20.4433Z" fill="white"/>
<path d="M4.41154 15.4606L15.4616 4.41065C14.1892 3.54747 12.6537 3.04297 11.0003 3.04297C6.60611 3.04297 3.04395 6.60518 3.04395 10.9994C3.04386 12.6527 3.54831 14.1882 4.41154 15.4606Z" fill="white"/>
<path opacity="0.1" d="M3.59232 13.9088C3.57132 13.6527 3.5603 13.3937 3.5603 13.1322C3.5603 7.94666 7.76403 3.74293 12.9496 3.74293C13.4962 3.74293 14.0319 3.7897 14.5529 3.87937C13.4834 3.34463 12.2769 3.04346 10.9998 3.04346C6.60563 3.04346 3.04346 6.60567 3.04346 10.9998C3.04346 12.0266 3.23812 13.0078 3.59232 13.9088Z" fill="#F5F5F5"/>
<path d="M11 0C4.92483 0 0 4.92487 0 11C0 17.0751 4.92483 22 11 22C17.0751 22 22 17.0751 22 11C22 4.92483 17.0752 0 11 0ZM3.04359 11C3.04359 6.60576 6.60581 3.04359 11 3.04359C12.6534 3.04359 14.1889 3.54804 15.4613 4.41127L4.41127 15.4613C3.54804 14.1889 3.04359 12.6534 3.04359 11ZM11 18.9565C9.34658 18.9565 7.81106 18.452 6.5387 17.5888L17.5888 6.53874C18.452 7.81111 18.9565 9.34663 18.9565 11C18.9564 15.3942 15.3942 18.9565 11 18.9565Z" fill="#F01B1F"/>
<path d="M15.6691 4.10484C14.2888 3.16833 12.6742 2.67334 11.0001 2.67334C6.40899 2.67334 2.67383 6.4085 2.67383 10.9997C2.67383 12.6737 3.16882 14.2882 4.10529 15.6686C4.16724 15.7599 4.26664 15.8187 4.37648 15.8292C4.38816 15.8302 4.39984 15.8309 4.41148 15.8309C4.5091 15.8309 4.60334 15.7922 4.67303 15.7225L15.723 4.6725C15.801 4.59451 15.8401 4.48578 15.8297 4.37599C15.8193 4.2662 15.7604 4.16676 15.6691 4.10484ZM4.47583 14.8734C3.77956 13.7039 3.41363 12.3739 3.41363 10.9997C3.41363 6.81649 6.81689 3.41323 11.0001 3.41323C12.3744 3.41323 13.7043 3.77911 14.8738 4.47543L4.47583 14.8734Z" fill="#F5F5F5"/>
<path d="M6.17061 17.6237C6.18104 17.7335 6.23989 17.8329 6.33121 17.8949C7.71154 18.8314 9.32612 19.3264 11.0002 19.3264C15.5914 19.3264 19.3265 15.5912 19.3265 11.0001C19.3265 9.32604 18.8316 7.71151 17.8951 6.33117C17.8332 6.23986 17.7337 6.18105 17.6239 6.17057C17.5143 6.16027 17.4053 6.19926 17.3273 6.27725L6.27729 17.3272C6.1993 17.4052 6.16017 17.5139 6.17061 17.6237ZM17.5245 7.12636C18.2207 8.29573 18.5866 9.62584 18.5866 11C18.5866 15.1833 15.1834 18.5865 11.0002 18.5865C9.62587 18.5865 8.29594 18.2206 7.12648 17.5243L17.5245 7.12636Z" fill="#F5F5F5"/>
</svg>
