<svg width="28" height="20" viewBox="0 0 28 20" fill="none" xmlns="http://www.w3.org/2000/svg">
<path d="M13.9544 6.15385H27.1997C27.4024 6.15385 27.5967 6.23489 27.7401 6.37915C27.8834 6.52341 27.9639 6.71906 27.9639 6.92308C27.9639 7.12709 27.8834 7.32275 27.7401 7.467C27.5967 7.61126 27.4024 7.69231 27.1997 7.69231H13.9544C13.7518 7.69231 13.5574 7.61126 13.4141 7.467C13.2708 7.32275 13.1903 7.12709 13.1903 6.92308C13.1903 6.71906 13.2708 6.52341 13.4141 6.37915C13.5574 6.23489 13.7518 6.15385 13.9544 6.15385ZM27.1997 10.2564H13.9544C13.7518 10.2564 13.5574 10.3375 13.4141 10.4817C13.2708 10.626 13.1903 10.8216 13.1903 11.0256C13.1903 11.2297 13.2708 11.4253 13.4141 11.5696C13.5574 11.7138 13.7518 11.7949 13.9544 11.7949H27.1997C27.4024 11.7949 27.5967 11.7138 27.7401 11.5696C27.8834 11.4253 27.9639 11.2297 27.9639 11.0256C27.9639 10.8216 27.8834 10.626 27.7401 10.4817C27.5967 10.3375 27.4024 10.2564 27.1997 10.2564ZM27.1997 14.359H7.84123C7.63856 14.359 7.4442 14.44 7.30089 14.5843C7.15758 14.7285 7.07707 14.9242 7.07707 15.1282C7.07707 15.3322 7.15758 15.5279 7.30089 15.6721C7.4442 15.8164 7.63856 15.8974 7.84123 15.8974H27.1997C27.4024 15.8974 27.5967 15.8164 27.7401 15.6721C27.8834 15.5279 27.9639 15.3322 27.9639 15.1282C27.9639 14.9242 27.8834 14.7285 27.7401 14.5843C27.5967 14.44 27.4024 14.359 27.1997 14.359ZM27.1997 18.4615H7.84123C7.63856 18.4615 7.4442 18.5426 7.30089 18.6868C7.15758 18.8311 7.07707 19.0268 7.07707 19.2308C7.07707 19.4348 7.15758 19.6304 7.30089 19.7747C7.4442 19.919 7.63856 20 7.84123 20H27.1997C27.4024 20 27.5967 19.919 27.7401 19.7747C27.8834 19.6304 27.9639 19.4348 27.9639 19.2308C27.9639 19.0268 27.8834 18.8311 27.7401 18.6868C27.5967 18.5426 27.4024 18.4615 27.1997 18.4615ZM9.87896 11.7949C10.0816 11.7949 10.276 11.7138 10.4193 11.5696C10.5626 11.4253 10.6431 11.2297 10.6431 11.0256C10.6431 10.8216 10.5626 10.626 10.4193 10.4817C10.276 10.3375 10.0816 10.2564 9.87896 10.2564H8.60538V1.53846H13.1903V2.82051C13.1903 3.02453 13.2708 3.22018 13.4141 3.36444C13.5574 3.5087 13.7518 3.58974 13.9544 3.58974C14.1571 3.58974 14.3515 3.5087 14.4948 3.36444C14.6381 3.22018 14.7186 3.02453 14.7186 2.82051V0.769231C14.7186 0.565218 14.6381 0.369561 14.4948 0.225302C14.3515 0.0810436 14.1571 0 13.9544 0H1.72802C1.52535 0 1.33099 0.0810436 1.18768 0.225302C1.04438 0.369561 0.963867 0.565218 0.963867 0.769231V2.82051C0.963867 3.02453 1.04438 3.22018 1.18768 3.36444C1.33099 3.5087 1.52535 3.58974 1.72802 3.58974C1.93068 3.58974 2.12505 3.5087 2.26835 3.36444C2.41166 3.22018 2.49217 3.02453 2.49217 2.82051V1.53846H7.07707V10.2564H5.80349C5.60082 10.2564 5.40646 10.3375 5.26315 10.4817C5.11985 10.626 5.03934 10.8216 5.03934 11.0256C5.03934 11.2297 5.11985 11.4253 5.26315 11.5696C5.40646 11.7138 5.60082 11.7949 5.80349 11.7949H9.87896Z" fill="#ABB7C2"/>
</svg>
