<svg width="22" height="22" viewBox="0 0 22 22" fill="none" xmlns="http://www.w3.org/2000/svg">
<path d="M11 0C8.82441 0 6.69767 0.645138 4.88873 1.85383C3.07979 3.06253 1.66989 4.78049 0.83733 6.79048C0.00476594 8.80047 -0.21307 11.0122 0.211367 13.146C0.635804 15.2798 1.68345 17.2398 3.22183 18.7782C4.76021 20.3165 6.72022 21.3642 8.85401 21.7886C10.9878 22.2131 13.1995 21.9952 15.2095 21.1627C17.2195 20.3301 18.9375 18.9202 20.1462 17.1113C21.3549 15.3023 22 13.1756 22 11C21.9966 8.08367 20.8365 5.28777 18.7744 3.22561C16.7122 1.16345 13.9163 0.00342494 11 0ZM11 20.7059C9.08036 20.7059 7.20383 20.1366 5.6077 19.0701C4.01158 18.0036 2.76755 16.4878 2.03294 14.7143C1.29832 12.9408 1.10611 10.9892 1.48062 9.10647C1.85512 7.22372 2.77952 5.4943 4.13691 4.1369C5.4943 2.77951 7.22372 1.85512 9.10648 1.48061C10.9892 1.10611 12.9408 1.29832 14.7143 2.03293C16.4878 2.76755 18.0037 4.01158 19.0701 5.6077C20.1366 7.20382 20.7059 9.08036 20.7059 11C20.703 13.5733 19.6795 16.0404 17.8599 17.8599C16.0404 19.6795 13.5733 20.703 11 20.7059ZM10.3529 11.8627V5.82353C10.3529 5.65192 10.4211 5.48734 10.5425 5.36599C10.6638 5.24464 10.8284 5.17647 11 5.17647C11.1716 5.17647 11.3362 5.24464 11.4575 5.36599C11.5789 5.48734 11.6471 5.65192 11.6471 5.82353V11.8627C11.6471 12.0344 11.5789 12.1989 11.4575 12.3203C11.3362 12.4416 11.1716 12.5098 11 12.5098C10.8284 12.5098 10.6638 12.4416 10.5425 12.3203C10.4211 12.1989 10.3529 12.0344 10.3529 11.8627ZM12.0784 15.7451C12.0784 15.9584 12.0152 16.1669 11.8967 16.3442C11.7782 16.5216 11.6098 16.6598 11.4127 16.7414C11.2156 16.8231 10.9988 16.8444 10.7896 16.8028C10.5804 16.7612 10.3883 16.6585 10.2374 16.5077C10.0866 16.3568 9.9839 16.1647 9.94229 15.9555C9.90068 15.7463 9.92204 15.5295 10.0037 15.3324C10.0853 15.1353 10.2235 14.9669 10.4009 14.8484C10.5782 14.7299 10.7867 14.6667 11 14.6667C11.286 14.6667 11.5603 14.7803 11.7626 14.9825C11.9648 15.1848 12.0784 15.4591 12.0784 15.7451Z" fill="black"/>
</svg>
